<svg width="144" height="144" viewBox="0 0 144 144" fill="none" xmlns="http://www.w3.org/2000/svg">
<path d="M141 72C141 33.8924 110.108 3 72 3C33.8924 3 3 33.8924 3 72C3 110.108 33.8924 141 72 141V144C32.2355 144 0 111.765 0 72C0 32.2355 32.2355 0 72 0C111.765 0 144 32.2355 144 72C144 111.765 111.765 144 72 144V141C110.108 141 141 110.108 141 72Z" fill="#B88C4D"></path>
<path d="M131 72C131 39.4152 104.585 13 72 13C39.4152 13 13 39.4152 13 72C13 104.585 39.4152 131 72 131V134C37.7583 134 10 106.242 10 72C10 37.7583 37.7583 10 72 10C106.242 10 134 37.7583 134 72C134 106.242 106.242 134 72 134V131C104.585 131 131 104.585 131 72Z" fill="#B88C4D"></path>
<path d="M74.7386 48C79.8284 48 85.054 49.0878 90.7546 51.1955L92.3833 62.0057H90.2117C87.0899 55.2068 80.8464 50.9235 74.1278 50.9235C64.8304 50.9235 56.2116 57.9943 56.2116 71.2521C56.2116 83.2181 63.0659 93.0765 75.0779 93.0765C82.9502 93.0765 88.5829 89.0652 90.2117 81.6544H92.7227L92.3833 92.3286C87.7686 94.2323 79.6248 96 73.9242 96C58.994 96 48 86.5496 48 72.8839C48 58.8782 58.6547 48 74.7386 48Z" fill="#B88C4D"></path>
</svg>