<svg width="444" height="48" viewBox="0 0 444 48" fill="none" xmlns="http://www.w3.org/2000/svg">
<path d="M428.052 0C432.667 0 437.825 1.35977 442.236 3.87535V13.8697H439.318C438.843 7.07082 434.16 2.92351 427.645 2.92351C423.03 2.92351 419.298 5.77904 419.298 9.38243C419.298 12.3059 420.858 14.5496 429.07 19.1048C439.861 25.0878 444 28.9632 444 35.1501C444 42.8329 436.739 48 427.034 48C421.741 48 414.751 46.4363 411.357 44.7365V33.0425H414.276C415.836 40.8612 419.976 44.7365 426.831 44.7365C432.531 44.7365 437.01 41.2011 437.01 37.1218C437.01 33.7224 434.092 30.9348 426.559 26.6516C415.294 20.2606 412.308 16.9972 412.308 11.4901C412.308 4.82719 418.687 0 428.052 0Z" fill="white"></path>
<path d="M344.121 0.815857H366.719C377.306 0.815857 383.618 5.09915 383.618 12.7819C383.618 18.6969 378.935 23.1161 370.995 24.4079L379.478 34.1303C386.129 41.745 389.386 44.6006 391.965 44.6006V47.1841H386.672C382.125 47.1841 380.157 46.3683 374.252 39.0255L364.887 27.3314C363.598 25.7677 362.783 25.2918 359.051 25.2918H358.101V38.4136C358.101 42.2889 360.069 44.6006 365.226 44.6006V47.1841H344.121V44.6006C348.668 44.6006 350.975 42.8329 350.975 37.1218V9.85835C350.975 5.77903 349.075 3.39943 344.121 3.39943V0.815857ZM358.101 22.3683H364.751C371.606 22.3683 375.406 19.3768 375.406 13.5977C375.406 7.68271 370.723 3.73937 363.666 3.73937H358.101V22.3683Z" fill="white"></path>
<path d="M297.058 0C310.698 0 321.014 10.4703 321.014 23.864C321.014 38.0057 309.884 48 296.175 48C283.145 48 273.034 38.1416 273.034 25.0878C273.034 9.11048 284.231 0 297.058 0ZM281.245 21.2125C281.245 34.7422 288.032 45.0765 297.601 45.0765C306.762 45.0765 312.802 38.1416 312.802 26.9235C312.802 12.4419 305.541 2.92351 295.768 2.92351C287.557 2.92351 281.245 9.5864 281.245 21.2125Z" fill="white"></path>
<path d="M232.875 0C237.49 0 242.648 1.35977 247.059 3.87535V13.8697H244.141C243.666 7.07082 238.983 2.92351 232.468 2.92351C227.853 2.92351 224.121 5.77904 224.121 9.38243C224.121 12.3059 225.682 14.5496 233.893 19.1048C244.684 25.0878 248.823 28.9632 248.823 35.1501C248.823 42.8329 241.562 48 231.857 48C226.564 48 219.574 46.4363 216.181 44.7365V33.0425H219.099C220.66 40.8612 224.799 44.7365 231.654 44.7365C237.354 44.7365 241.833 41.2011 241.833 37.1218C241.833 33.7224 238.915 30.9348 231.382 26.6516C220.117 20.2606 217.131 16.9972 217.131 11.4901C217.131 4.82719 223.51 0 232.875 0Z" fill="white"></path>
<path d="M138.425 0.815857H149.419L184.098 36.034V13.8017C184.098 7.81869 182.333 3.39943 176.022 3.39943V0.815857H194.277V3.39943C189.391 3.39943 187.016 7.41076 187.016 13.5977V35.5581C187.016 41.2691 188.577 45.2125 188.577 47.728H184.098C180.84 43.4448 180.365 42.8329 178.465 40.9292L150.573 12.3059V36.17C150.573 41.6091 152.948 44.6006 158.852 44.6006V47.1841H139.443V44.6006C145.822 44.6006 147.654 42.2889 147.654 37.7337V9.17846L144.125 5.71104C142.768 4.41926 140.868 3.60339 138.425 3.39943V0.815857Z" fill="white"></path>
<path d="M93.3985 0C107.039 0 117.355 10.4703 117.355 23.864C117.355 38.0057 106.225 48 92.5163 48C79.4863 48 69.3745 38.1416 69.3745 25.0878C69.3745 9.11048 80.5721 0 93.3985 0ZM77.5861 21.2125C77.5861 34.7422 84.3726 45.0765 93.9414 45.0765C103.103 45.0765 109.143 38.1416 109.143 26.9235C109.143 12.4419 101.882 2.92351 92.1091 2.92351C83.8975 2.92351 77.5861 9.5864 77.5861 21.2125Z" fill="white"></path>
<path d="M26.7386 0C31.8284 0 37.054 1.08782 42.7546 3.19547L44.3833 14.0057H42.2117C39.0899 7.2068 32.8464 2.92351 26.1278 2.92351C16.8304 2.92351 8.2116 9.99433 8.2116 23.2521C8.2116 35.2181 15.0659 45.0765 27.0779 45.0765C34.9502 45.0765 40.5829 41.0652 42.2117 33.6544H44.7227L44.3833 44.3286C39.7686 46.2323 31.6248 48 25.9242 48C10.994 48 0 38.5496 0 24.8839C0 10.8782 10.6547 0 26.7386 0Z" fill="white"></path>
</svg>